<svg width="175" height="60" viewBox="0 0 175 60" fill="none" xmlns="http://www.w3.org/2000/svg">
  <path d="M94.4648 49.9467C92.4908 48.248 90.5855 46.4346 88.7492 44.5065C86.9587 42.5324 85.2831 40.5124 83.7222 38.4465C82.2072 36.3806 80.807 34.2918 79.5215 32.1799C78.282 30.0222 77.2261 27.9104 76.3538 25.8445C74.7929 27.5432 73.232 29.2647 71.6711 31.0093C70.1561 32.7079 68.8018 34.4295 67.6082 36.174C66.4145 37.8726 65.4504 39.5942 64.7159 41.3388C63.9355 43.0374 63.5452 44.736 63.5452 46.4346C63.5452 48.4546 63.8895 50.1992 64.5782 51.6683C65.2209 53.0914 66.0932 54.2621 67.195 55.1803C68.2968 56.0985 69.5593 56.7641 70.9825 57.1773C72.4056 57.5905 73.8747 57.7971 75.3897 57.7971C78.4197 57.7971 81.6333 57.0855 85.0306 55.6623C88.4278 54.2391 91.5726 52.3339 94.4648 49.9467ZM85.9258 9.11075C85.9258 7.50394 85.5585 6.35622 84.824 5.66758C84.1353 4.93304 83.3779 4.56577 82.5515 4.56577C81.8629 4.56577 81.1283 4.79532 80.3479 5.25441C79.6133 5.71349 78.9247 6.37917 78.282 7.25144C77.6852 8.0778 77.1802 9.08779 76.767 10.2814C76.3538 11.4751 76.1472 12.7835 76.1472 14.2066C76.1472 16.8234 76.6293 19.6009 77.5933 22.5391C78.7411 21.3455 79.8199 20.1748 80.8299 19.0271C81.8399 17.8793 82.7122 16.7546 83.4467 15.6528C84.2272 14.505 84.824 13.4032 85.2372 12.3473C85.6962 11.2455 85.9258 10.1667 85.9258 9.11075ZM112.438 59.3809C112.438 59.5187 112.346 59.6564 112.163 59.7941C111.979 59.9318 111.704 60.0007 111.336 60.0007C108.582 59.1284 105.873 57.9119 103.21 56.351C100.548 54.7441 97.9539 52.8848 95.4289 50.773C93.6844 52.1044 91.871 53.321 89.9887 54.4228C88.1065 55.5246 86.1783 56.4657 84.2042 57.2462C82.276 58.0266 80.3249 58.6234 78.3508 59.0366C76.4227 59.4498 74.5634 59.6564 72.7729 59.6564C71.0284 59.6564 69.3757 59.4039 67.8148 58.8989C66.2539 58.4398 64.8995 57.7282 63.7518 56.7641C62.6041 55.7541 61.7089 54.5146 61.0662 53.0455C60.3775 51.5764 60.0332 49.8549 60.0332 47.8808C60.0332 45.769 60.5152 43.7031 61.4793 41.6831C62.4434 39.6172 63.683 37.5972 65.1979 35.6231C66.7129 33.649 68.3886 31.7209 70.225 29.8386C72.1072 27.9563 73.9436 26.12 75.734 24.3295C74.4027 20.7486 73.737 17.5121 73.737 14.6198C73.737 12.9212 74.0354 11.3603 74.6322 9.93711C75.2749 8.51393 76.0783 7.29735 77.0424 6.28735C78.0065 5.27736 79.0624 4.49691 80.2101 3.946C81.4038 3.34919 82.5285 3.05078 83.5844 3.05078C84.824 3.05078 85.9487 3.46396 86.9587 4.29032C87.9687 5.07077 88.4737 6.37917 88.4737 8.21553C88.4737 9.36325 88.1753 10.5569 87.5785 11.7964C87.0276 13.036 86.2701 14.3214 85.306 15.6528C84.3878 16.9382 83.286 18.2925 82.0006 19.7157C80.761 21.093 79.4526 22.5161 78.0754 23.9852C79.5904 28.1629 81.8399 32.4095 84.824 36.7249C87.854 40.9944 91.5267 44.9885 95.8421 48.7071C98.1835 46.5953 100.066 44.2769 101.489 41.7519C102.912 39.227 103.624 36.5872 103.624 33.8327C103.624 32.9145 103.486 31.9963 103.21 31.0781C102.981 30.114 102.499 29.1041 101.764 28.0481C101.764 27.9563 101.902 27.8645 102.178 27.7727C102.453 27.635 102.705 27.5661 102.935 27.5661C103.578 27.5661 104.083 27.7956 104.45 28.2547C104.863 28.6679 105.162 29.1729 105.345 29.7697C105.575 30.3665 105.713 30.9863 105.758 31.629C105.85 32.2259 105.896 32.7079 105.896 33.0752C105.896 36.1051 105.047 39.0433 103.348 41.8897C101.695 44.6901 99.5378 47.261 96.8751 49.6024C101.328 53.4128 106.355 56.5116 111.956 58.8989C112.277 59.0825 112.438 59.2432 112.438 59.3809Z" fill="#FFA55C" />
  <path d="M13.9084 34.7915C13.9084 33.3572 13.8158 32.1659 13.6308 31.2175C13.4689 30.269 13.2375 29.7948 12.9368 29.7948C12.7517 29.7948 12.5783 29.9336 12.4163 30.2112C12.2544 30.4657 12.1156 30.8358 11.9999 31.3216C11.9074 31.7842 11.8264 32.3394 11.757 32.9871C11.7108 33.6117 11.6876 34.2941 11.6876 35.0344C11.6876 36.3529 11.7802 37.7756 11.9652 39.3023C12.1503 40.8059 12.4742 42.2633 12.9368 43.6744C13.2607 42.1939 13.5036 40.6787 13.6655 39.1288C13.8274 37.5558 13.9084 36.11 13.9084 34.7915ZM28.4472 19.0382C28.4472 19.1538 28.4009 19.2464 28.3084 19.3158C28.2159 19.3852 28.1002 19.4661 27.9614 19.5587C27.2674 19.9751 26.7007 20.5534 26.2612 21.2936C25.8217 22.0339 25.4631 22.8435 25.1855 23.7225C24.931 24.6016 24.7576 25.5037 24.665 26.429C24.5725 27.3312 24.5262 28.164 24.5262 28.9274C24.5262 29.4594 24.5494 30.1187 24.5956 30.9052C24.665 31.6686 24.7344 32.5129 24.8038 33.4382C24.8963 34.3635 24.9657 35.3466 25.012 36.3876C25.0814 37.4054 25.1161 38.4464 25.1161 39.5105C25.1161 41.0141 25.0236 42.4715 24.8385 43.8826C24.6766 45.2937 24.3412 46.5544 23.8322 47.6647C23.3465 48.7751 22.6641 49.6657 21.785 50.3366C20.906 51.0074 19.7609 51.3428 18.3498 51.3428C17.7021 51.3428 17.0891 51.2156 16.5108 50.9611C15.9556 50.7298 15.4351 50.3944 14.9493 49.9549C14.4867 49.5153 14.0587 49.0064 13.6655 48.4281C13.2954 47.8498 12.9599 47.2137 12.6592 46.5197C12.3585 47.3293 11.9999 48.0811 11.5836 48.7751C11.1903 49.4691 10.7508 50.0705 10.265 50.5794C9.77921 51.0884 9.24716 51.4816 8.66885 51.7592C8.09053 52.0368 7.47752 52.1756 6.82981 52.1756C5.83511 52.1756 4.99077 51.9211 4.29679 51.4122C3.62595 50.9033 3.07076 50.2325 2.63125 49.3997C2.19173 48.59 1.84474 47.6647 1.59028 46.6238C1.35895 45.5597 1.18546 44.484 1.0698 43.3968C0.954134 42.2864 0.87317 41.2108 0.826905 40.1698C0.803773 39.1057 0.78064 38.1688 0.757508 37.3592C0.711242 35.9018 0.734375 34.5254 0.826905 33.23C0.942568 31.9115 1.0698 30.7317 1.20859 29.6907C1.34739 28.6266 1.48618 27.7129 1.62498 26.9495C1.76377 26.1861 1.8563 25.6194 1.90257 25.2493C1.9257 25.1105 2.0645 25.018 2.31896 24.9717C2.59655 24.9254 2.83944 24.9023 3.04763 24.9023C3.20956 24.9023 3.34836 24.9254 3.46402 24.9717C3.57968 24.9948 3.63751 25.0642 3.63751 25.1799C3.63751 25.3187 3.57968 25.5616 3.46402 25.9086C3.34836 26.2324 3.17486 26.857 2.94354 27.7823C2.85101 28.1987 2.74691 28.8001 2.63125 29.5866C2.53872 30.35 2.44619 31.2175 2.35366 32.1891C2.28426 33.1606 2.22643 34.2016 2.18016 35.3119C2.1339 36.3992 2.11076 37.4633 2.11076 38.5042C2.11076 39.3139 2.14546 40.2045 2.21486 41.1761C2.28426 42.1245 2.39992 43.0729 2.56185 44.0214C2.72378 44.9467 2.94354 45.8488 3.22113 46.7279C3.49872 47.6069 3.83414 48.3819 4.22739 49.0527C4.64378 49.7235 5.12956 50.2556 5.68475 50.6488C6.23993 51.0652 6.88764 51.2734 7.62788 51.2734C8.18306 51.2734 8.69198 51.1346 9.15463 50.857C9.61728 50.5794 10.0452 50.1862 10.4385 49.6773C10.8317 49.1915 11.1787 48.6132 11.4795 47.9423C11.8033 47.2715 12.0925 46.5428 12.3469 45.7563C11.8149 44.299 11.4216 42.7491 11.1672 41.1067C10.9127 39.4642 10.7855 37.9491 10.7855 36.5611C10.7855 35.5433 10.8202 34.537 10.8896 33.5423C10.9821 32.5476 11.1093 31.657 11.2713 30.8705C11.4332 30.084 11.6414 29.4478 11.8958 28.9621C12.1503 28.4763 12.451 28.2334 12.798 28.2334C13.0756 28.2334 13.3185 28.4069 13.5267 28.7539C13.758 29.1009 13.9431 29.5751 14.0819 30.1765C14.2438 30.778 14.3595 31.4951 14.4289 32.3278C14.5214 33.1375 14.5677 34.0165 14.5677 34.965C14.5677 36.4917 14.4636 38.0994 14.2554 39.7881C14.0472 41.4536 13.7233 43.0845 13.2838 44.6806C13.5845 45.4903 13.9315 46.2421 14.3248 46.9361C14.718 47.6069 15.1575 48.1968 15.6433 48.7057C16.1522 49.2146 16.7074 49.6079 17.3089 49.8855C17.9334 50.1862 18.6159 50.3366 19.3561 50.3366C20.3739 50.3366 21.2067 50.0821 21.8544 49.5732C22.5021 49.0874 23.011 48.4166 23.3812 47.5606C23.7513 46.6816 24.0057 45.6753 24.1445 44.5418C24.2833 43.3852 24.3527 42.1476 24.3527 40.8291C24.3527 39.6493 24.3065 38.4348 24.2139 37.1857C24.1445 35.9365 24.0636 34.6989 23.971 33.4729C23.8785 32.2238 23.786 31.0209 23.6935 29.8642C23.6241 28.6845 23.5894 27.5972 23.5894 26.6025C23.5894 25.8854 23.6935 25.0527 23.9016 24.1042C24.133 23.1558 24.4337 22.2652 24.8038 21.4324C25.1971 20.5765 25.6366 19.8594 26.1224 19.2811C26.6313 18.6796 27.1633 18.3789 27.7185 18.3789C27.8804 18.3789 28.0424 18.4599 28.2043 18.6218C28.3662 18.7606 28.4472 18.8994 28.4472 19.0382Z" fill="#1F1711" />
  <path d="M39.2816 42.0782C39.2816 41.7312 39.2238 41.4536 39.1082 41.2455C38.9925 41.0141 38.8074 40.8985 38.553 40.8985C38.1597 40.8985 37.859 41.0951 37.6508 41.4883C37.4426 41.8585 37.3501 42.3327 37.3732 42.911C37.4426 44.137 37.6624 45.1664 38.0325 45.9992C38.4257 45.4671 38.7265 44.8657 38.9347 44.1949C39.166 43.524 39.2816 42.8185 39.2816 42.0782ZM48.6503 42.0435C48.4884 42.3905 48.3149 42.7491 48.1299 43.1192C47.9448 43.4662 47.7366 43.8132 47.5053 44.1602C46.3255 45.9182 45.1342 47.2252 43.9313 48.0811C42.7284 48.937 41.6065 49.365 40.5655 49.365C39.2469 49.365 38.2407 48.7404 37.5467 47.4912C36.7371 48.3009 35.8233 48.9139 34.8055 49.3303C33.8108 49.7467 32.8277 49.9549 31.8561 49.9549C31.2778 49.9549 30.7226 49.8739 30.1905 49.712C29.6816 49.55 29.2421 49.3072 28.872 48.9833C28.4787 48.6363 28.1664 48.2084 27.9351 47.6994C27.7038 47.1674 27.5881 46.5544 27.5881 45.8604C27.5881 45.0276 27.7848 44.1833 28.178 43.3274C28.5481 42.4483 29.0686 41.6618 29.7395 40.9679C30.4334 40.2508 31.2431 39.6609 32.1684 39.1982C33.0937 38.7356 34.0999 38.5042 35.1872 38.5042C36.0662 38.5042 36.7486 38.6315 37.2344 38.8859C37.7202 39.1173 37.9631 39.337 37.9631 39.5452C37.9631 39.6377 37.9168 39.7071 37.8243 39.7534C37.7318 39.7997 37.6508 39.8228 37.5814 39.8228C37.5583 39.7997 37.5351 39.7881 37.512 39.7881H37.4773C37.1997 39.5336 36.8874 39.337 36.5404 39.1982C36.1934 39.0363 35.6845 38.9553 35.0137 38.9553C34.1115 38.9553 33.2903 39.152 32.5501 39.5452C31.833 39.9153 31.2199 40.4127 30.711 41.0373C30.2021 41.6387 29.8089 42.3096 29.5313 43.0498C29.2537 43.79 29.1149 44.5187 29.1149 45.2358C29.1149 46.6238 29.4387 47.63 30.0864 48.2546C30.7342 48.8792 31.5438 49.1915 32.5154 49.1915C33.3019 49.1915 34.1231 48.9949 34.979 48.6016C35.8349 48.2084 36.5983 47.6532 37.2691 46.9361C36.899 46.1033 36.7139 45.0161 36.7139 43.6744C36.7139 42.7953 36.8759 42.032 37.1997 41.3843C37.5236 40.7365 37.9862 40.4127 38.5877 40.4127C39.4204 40.4127 39.8368 40.8985 39.8368 41.87C39.8368 42.8416 39.698 43.7206 39.4204 44.5071C39.1428 45.2705 38.7727 45.9645 38.3101 46.5891C38.9578 47.792 39.86 48.3934 41.0166 48.3934C41.8956 48.3934 42.8325 48.0233 43.8272 47.2831C44.845 46.5428 45.8397 45.4671 46.8113 44.0561C47.0426 43.7091 47.2508 43.3505 47.4359 42.9804C47.6209 42.6103 47.806 42.2402 47.9911 41.87L48.6503 42.0435Z" fill="#1F1711" />
  <path d="M53.47 26.5331C53.47 25.2146 53.2502 24.162 52.8107 23.3755C52.3943 22.5659 51.6887 22.1611 50.694 22.1611C50.3471 22.1611 50.0232 22.2767 49.7225 22.5081C49.4449 22.7163 49.202 23.0054 48.9938 23.3755C48.7856 23.7457 48.6237 24.1736 48.508 24.6594C48.3924 25.1452 48.3345 25.6657 48.3345 26.2208C48.3345 27.7476 48.3461 29.1356 48.3692 30.3847C48.3924 31.6339 48.4155 32.8136 48.4386 33.924C48.4849 35.0344 48.5311 36.11 48.5774 37.151C48.6237 38.192 48.6699 39.2561 48.7162 40.3433C49.3871 39.4411 50.0116 38.4117 50.5899 37.2551C51.1683 36.0753 51.6656 34.8724 52.082 33.6464C52.5215 32.3972 52.8569 31.1597 53.0883 29.9336C53.3427 28.7076 53.47 27.5741 53.47 26.5331ZM66.0309 42.0435C65.869 42.3905 65.6955 42.7491 65.5105 43.1192C65.3485 43.4893 65.1403 43.8363 64.8859 44.1602C63.6136 45.9645 62.1678 47.3872 60.5485 48.4281C58.9292 49.446 57.3215 49.9549 55.7254 49.9549C54.7307 49.9549 53.7822 49.7235 52.8801 49.2609C51.9779 48.8214 51.1798 48.1043 50.4859 47.1096C50.3933 46.9939 50.3471 46.8898 50.3471 46.7973C50.3471 46.5891 50.4859 46.485 50.7634 46.485C50.7866 46.485 50.8675 46.5081 51.0063 46.5544C51.1914 46.5544 51.3996 46.6238 51.6309 46.7626C51.8854 46.8782 52.2439 46.9361 52.7066 46.9361C53.4237 46.9361 54.0945 46.8088 54.7191 46.5544C55.3437 46.2999 55.8757 45.9761 56.3153 45.5828C56.7779 45.1664 57.1365 44.7038 57.3909 44.1949C57.6454 43.6628 57.7726 43.1192 57.7726 42.564C57.7726 41.87 57.5876 41.2686 57.2174 40.7597C56.8704 40.2508 56.269 39.9963 55.4131 39.9963C54.534 39.9963 53.7244 40.3086 52.9842 40.9332C52.2439 41.5346 51.5731 42.2749 50.9716 43.1539C50.3933 44.0098 49.896 44.9235 49.4796 45.8951C49.0632 46.8435 48.7509 47.6763 48.5427 48.3934C48.4271 48.7867 48.323 49.0296 48.2304 49.1221C48.1379 49.2146 48.0338 49.2609 47.9181 49.2609C47.6637 49.2609 47.548 49.018 47.5711 48.5322C47.5711 48.324 47.5827 48.0696 47.6058 47.7688C47.629 47.4681 47.6521 47.1443 47.6752 46.7973C47.6752 46.4503 47.6868 46.1033 47.7099 45.7563C47.7331 45.3862 47.7446 45.0508 47.7446 44.75C47.7446 43.7091 47.7215 42.5177 47.6752 41.1761C47.629 39.8112 47.5711 38.4117 47.5017 36.9775C47.4323 35.5201 47.3745 34.0744 47.3283 32.6401C47.282 31.2059 47.2589 29.8874 47.2589 28.6845C47.2589 27.736 47.3283 26.8223 47.4671 25.9433C47.6058 25.0411 47.8256 24.2546 48.1263 23.5837C48.427 22.8898 48.8087 22.3461 49.2714 21.9529C49.734 21.5365 50.2777 21.3283 50.9022 21.3283C51.5499 21.3283 52.0936 21.444 52.5331 21.6753C52.9957 21.8835 53.3659 22.1958 53.6434 22.6122C53.921 23.0054 54.1177 23.4912 54.2333 24.0695C54.3721 24.6247 54.4415 25.2377 54.4415 25.9086C54.4415 27.0652 54.2796 28.3375 53.9557 29.7254C53.6319 31.0903 53.2039 32.4666 52.6719 33.8546C52.1398 35.2426 51.5268 36.5842 50.8328 37.8797C50.162 39.152 49.468 40.2623 48.7509 41.2108C48.7972 41.9047 48.8203 42.6218 48.8203 43.3621C48.8434 44.1023 48.8781 44.8888 48.9244 45.7216C49.5027 44.4724 50.1389 43.3968 50.8328 42.4946C51.1336 42.1014 51.469 41.7197 51.8391 41.3496C52.2324 40.9563 52.6372 40.6093 53.0536 40.3086C53.4931 40.0079 53.9557 39.765 54.4415 39.5799C54.9504 39.3948 55.4825 39.3023 56.0377 39.3023C56.9167 39.3023 57.6801 39.5221 58.3278 39.9616C58.9755 40.4011 59.2994 41.1067 59.2994 42.0782C59.2994 43.0035 59.068 43.79 58.6054 44.4377C58.1659 45.0855 57.6107 45.6291 56.9398 46.0686C56.269 46.485 55.5519 46.7973 54.7885 47.0055C54.0251 47.2137 53.3312 47.3409 52.7066 47.3872C52.6603 47.3872 52.6372 47.3987 52.6372 47.4219C52.6372 47.4681 52.6719 47.5375 52.7413 47.63C53.2039 48.1621 53.7244 48.5438 54.3027 48.7751C54.881 49.0064 55.4825 49.1221 56.1071 49.1221C56.8704 49.1221 57.6454 48.9833 58.4319 48.7057C59.2184 48.405 59.9702 48.0233 60.6873 47.5606C61.4044 47.0749 62.0637 46.5312 62.6652 45.9298C63.2897 45.3052 63.7986 44.6806 64.1919 44.0561C64.4232 43.7091 64.6314 43.3505 64.8165 42.9804C65.0015 42.6103 65.1866 42.2402 65.3717 41.87L66.0309 42.0435Z" fill="#1F1711" />
  <path d="M70.9227 39.8922C70.9227 39.2676 70.7607 38.7587 70.4369 38.3654C70.1362 37.9491 69.6388 37.7409 68.9448 37.7409C68.5747 37.7409 68.2393 37.8565 67.9386 38.0879C67.6378 38.3192 67.3834 38.6315 67.1752 39.0247C66.967 39.3948 66.8051 39.8344 66.6894 40.3433C66.5737 40.8522 66.5159 41.3843 66.5159 41.9394C66.5159 42.8185 66.6084 43.605 66.7935 44.299C67.0017 44.9698 67.2909 45.5597 67.661 46.0686C68.1468 45.6753 68.5863 45.2243 68.9795 44.7153C69.3728 44.2064 69.7082 43.6744 69.9858 43.1192C70.2865 42.564 70.5178 42.0088 70.6798 41.4536C70.8417 40.8985 70.9227 40.378 70.9227 39.8922ZM79.7015 42.0435C79.5395 42.3905 79.3661 42.7491 79.181 43.1192C79.0191 43.4662 78.8109 43.8132 78.5564 44.1602C77.4229 45.7794 76.1275 47.0055 74.6701 47.8382C73.2359 48.6479 71.8595 49.0527 70.541 49.0527C69.8007 49.0527 69.1068 48.9255 68.459 48.671C67.8345 48.4166 67.2909 48.0349 66.8282 47.5259C66.3655 47.017 65.9954 46.3809 65.7178 45.6175C65.4402 44.8541 65.3015 43.952 65.3015 42.911C65.3015 42.217 65.4055 41.523 65.6137 40.8291C65.8219 40.1351 66.0995 39.5105 66.4465 38.9553C66.8166 38.4001 67.233 37.9491 67.6957 37.6021C68.1815 37.2551 68.6904 37.0816 69.2224 37.0816C70.0783 37.0816 70.7029 37.336 71.0962 37.845C71.4894 38.3308 71.686 38.9553 71.686 39.7187C71.686 40.7597 71.3622 41.8932 70.7145 43.1192C70.0899 44.3221 69.1877 45.444 68.008 46.485C68.887 47.4797 70.0205 47.977 71.4084 47.977C72.4494 47.977 73.5366 47.6647 74.6701 47.0402C75.8036 46.3925 76.8677 45.3978 77.8624 44.0561C78.1169 43.7322 78.3251 43.3852 78.487 43.0151C78.6721 42.6218 78.8571 42.2402 79.0422 41.87L79.7015 42.0435Z" fill="#1F1711" />
  <path d="M109.763 33.2994C108.907 33.2994 108.086 33.3919 107.3 33.577C106.536 33.7621 105.854 33.9818 105.252 34.2363C104.674 34.4907 104.2 34.7568 103.83 35.0344C103.483 35.3119 103.309 35.5548 103.309 35.763C103.309 36.0406 103.633 36.1794 104.281 36.1794C105.391 36.1794 106.444 35.9134 107.438 35.3813C108.456 34.8493 109.37 34.1553 110.18 33.2994H109.763ZM119.861 38.5042C119.861 39.6377 119.537 40.8638 118.889 42.1823C118.264 43.5009 117.397 44.8079 116.287 46.1033C115.176 47.3987 113.858 48.6479 112.331 49.8508C110.804 51.0537 109.162 52.1178 107.404 53.0431C105.646 53.9684 103.795 54.697 101.852 55.2291C99.9087 55.7843 97.9655 56.0619 96.0224 56.0619C95.6986 56.0619 95.34 56.0503 94.9467 56.0272C94.5766 56.004 94.2296 55.9462 93.9058 55.8537C93.5819 55.7843 93.3043 55.657 93.073 55.472C92.8417 55.3101 92.726 55.0787 92.726 54.778C92.726 54.3616 92.9342 53.9568 93.3506 53.5635C93.767 53.1934 94.299 52.8464 94.9467 52.5226C95.5945 52.1987 96.3 51.9096 97.0634 51.6551C97.8268 51.4007 98.5554 51.1809 99.2494 50.9958C99.9665 50.8108 100.591 50.6604 101.123 50.5447C101.655 50.4522 102.014 50.406 102.199 50.406C102.338 50.406 102.442 50.4407 102.511 50.5101C102.58 50.5794 102.615 50.6488 102.615 50.7182C102.615 50.8339 102.557 50.8917 102.442 50.8917H101.991C101.389 50.8917 100.626 51.0074 99.7005 51.2387C98.7752 51.4701 97.873 51.7592 96.994 52.1062C96.1149 52.4532 95.3631 52.8349 94.7386 53.2513C94.114 53.6908 93.8017 54.0956 93.8017 54.4657C93.8017 54.7202 93.8826 54.9168 94.0446 55.0556C94.2296 55.2175 94.4494 55.3448 94.7039 55.4373C94.9583 55.5298 95.2243 55.5876 95.5019 55.6108C95.7795 55.657 96.0224 55.6802 96.2306 55.6802C97.873 55.6802 99.5501 55.4026 101.262 54.8474C102.997 54.2922 104.674 53.552 106.293 52.6267C107.936 51.7245 109.474 50.672 110.908 49.4691C112.366 48.2893 113.638 47.0633 114.725 45.791C115.812 44.4956 116.668 43.2117 117.293 41.9394C117.917 40.644 118.23 39.4411 118.23 38.3308C118.23 36.9659 117.663 35.8324 116.529 34.9303C115.419 34.005 113.58 33.4729 111.012 33.3341C109.971 34.3057 108.826 35.0922 107.577 35.6936C106.351 36.2951 105.102 36.5958 103.83 36.5958C102.927 36.5958 102.476 36.376 102.476 35.9365C102.476 35.6589 102.661 35.3466 103.032 34.9997C103.425 34.6295 103.957 34.2825 104.628 33.9587C105.322 33.6348 106.143 33.3688 107.091 33.1606C108.04 32.9293 109.081 32.8136 110.214 32.8136H110.631C111.394 31.9115 112.007 30.9283 112.47 29.8642C112.932 28.777 113.164 27.7129 113.164 26.6719C113.164 25.978 113.036 25.3187 112.782 24.6941C112.551 24.0464 112.157 23.4912 111.602 23.0286C111.07 22.5659 110.365 22.1958 109.486 21.9182C108.63 21.6406 107.589 21.5018 106.363 21.5018C105.53 21.5018 104.373 21.6175 102.893 21.8488C101.435 22.0801 99.8508 22.4387 98.139 22.9245C96.4504 23.3871 94.727 23.977 92.9689 24.6941C91.2108 25.4112 89.6147 26.244 88.1805 27.1924C86.7462 28.1409 85.5781 29.2165 84.6759 30.4194C83.7737 31.6223 83.3226 32.9524 83.3226 34.4098C83.3226 34.5948 83.2879 34.7568 83.2185 34.8956C83.1491 35.0112 83.0797 35.0691 83.0103 35.0691C82.9178 35.0691 82.8484 34.9765 82.8021 34.7915C82.7327 34.5833 82.698 34.2479 82.698 33.7852C82.9062 32.2816 83.5193 30.9168 84.5371 29.6907C85.5549 28.4647 86.8156 27.3775 88.3193 26.429C89.7997 25.4575 91.4306 24.6247 93.2118 23.9307C94.993 23.2367 96.7511 22.67 98.486 22.2305C100.244 21.7678 101.875 21.4324 103.379 21.2242C104.905 20.9929 106.154 20.8772 107.126 20.8772C108.537 20.8772 109.728 21.016 110.7 21.2936C111.695 21.5481 112.504 21.9066 113.129 22.3693C113.754 22.8088 114.205 23.3408 114.482 23.9654C114.76 24.59 114.899 25.2493 114.899 25.9433C114.899 27.0768 114.586 28.2565 113.962 29.4825C113.36 30.6854 112.539 31.8074 111.498 32.8483C112.979 32.9177 114.251 33.1144 115.315 33.4382C116.379 33.7389 117.247 34.1438 117.917 34.6527C118.588 35.1385 119.074 35.7168 119.375 36.3876C119.699 37.0353 119.861 37.7409 119.861 38.5042ZM101.47 47.63C101.47 47.9539 101.447 48.1852 101.401 48.324C101.354 48.4628 101.227 48.5322 101.019 48.5322C100.556 48.5785 100.325 48.1158 100.325 47.1443C100.302 43.952 100.267 41.0373 100.221 38.4001C100.198 35.763 100.163 33.4845 100.117 31.5645C100.094 29.6213 100.071 28.083 100.047 26.9495C100.024 25.816 100.013 25.1683 100.013 25.0064C100.013 24.8213 100.071 24.6941 100.186 24.6247C100.302 24.5553 100.441 24.4975 100.603 24.4512C100.788 24.4512 100.927 24.509 101.019 24.6247C101.135 24.7404 101.193 24.8792 101.193 25.0411C101.193 26.8917 101.204 28.8001 101.227 30.7664C101.25 32.7095 101.274 34.6527 101.297 36.5958C101.343 38.5389 101.378 40.4474 101.401 42.3211C101.447 44.1949 101.47 45.9645 101.47 47.63Z" fill="#1F1711" />
  <path d="M133.348 42.0782C133.348 41.7312 133.29 41.4536 133.175 41.2455C133.059 41.0141 132.874 40.8985 132.619 40.8985C132.226 40.8985 131.925 41.0951 131.717 41.4883C131.509 41.8585 131.417 42.3327 131.44 42.911C131.509 44.137 131.729 45.1664 132.099 45.9992C132.492 45.4671 132.793 44.8657 133.001 44.1949C133.232 43.524 133.348 42.8185 133.348 42.0782ZM142.717 42.0435C142.555 42.3905 142.381 42.7491 142.196 43.1192C142.011 43.4662 141.803 43.8132 141.572 44.1602C140.392 45.9182 139.201 47.2252 137.998 48.0811C136.795 48.937 135.673 49.365 134.632 49.365C133.313 49.365 132.307 48.7404 131.613 47.4912C130.804 48.3009 129.89 48.9139 128.872 49.3303C127.877 49.7467 126.894 49.9549 125.923 49.9549C125.344 49.9549 124.789 49.8739 124.257 49.712C123.748 49.55 123.309 49.3072 122.938 48.9833C122.545 48.6363 122.233 48.2084 122.002 47.6994C121.77 47.1674 121.655 46.5544 121.655 45.8604C121.655 45.0276 121.851 44.1833 122.244 43.3274C122.615 42.4483 123.135 41.6618 123.806 40.9679C124.5 40.2508 125.31 39.6609 126.235 39.1982C127.16 38.7356 128.166 38.5042 129.254 38.5042C130.133 38.5042 130.815 38.6315 131.301 38.8859C131.787 39.1173 132.03 39.337 132.03 39.5452C132.03 39.6377 131.983 39.7071 131.891 39.7534C131.798 39.7997 131.717 39.8228 131.648 39.8228C131.625 39.7997 131.602 39.7881 131.578 39.7881H131.544C131.266 39.5336 130.954 39.337 130.607 39.1982C130.26 39.0363 129.751 38.9553 129.08 38.9553C128.178 38.9553 127.357 39.152 126.617 39.5452C125.899 39.9153 125.286 40.4127 124.777 41.0373C124.269 41.6387 123.875 42.3096 123.598 43.0498C123.32 43.79 123.181 44.5187 123.181 45.2358C123.181 46.6238 123.505 47.63 124.153 48.2546C124.801 48.8792 125.61 49.1915 126.582 49.1915C127.368 49.1915 128.19 48.9949 129.045 48.6016C129.901 48.2084 130.665 47.6532 131.336 46.9361C130.965 46.1033 130.78 45.0161 130.78 43.6744C130.78 42.7953 130.942 42.032 131.266 41.3843C131.59 40.7365 132.053 40.4127 132.654 40.4127C133.487 40.4127 133.903 40.8985 133.903 41.87C133.903 42.8416 133.764 43.7206 133.487 44.5071C133.209 45.2705 132.839 45.9645 132.377 46.5891C133.024 47.792 133.926 48.3934 135.083 48.3934C135.962 48.3934 136.899 48.0233 137.894 47.2831C138.911 46.5428 139.906 45.4671 140.878 44.0561C141.109 43.7091 141.317 43.3505 141.502 42.9804C141.687 42.6103 141.872 42.2402 142.057 41.87L142.717 42.0435Z" fill="#1F1711" />
  <path d="M147.536 26.5331C147.536 25.2146 147.317 24.162 146.877 23.3755C146.461 22.5659 145.755 22.1611 144.76 22.1611C144.413 22.1611 144.09 22.2767 143.789 22.5081C143.511 22.7163 143.268 23.0054 143.06 23.3755C142.852 23.7457 142.69 24.1736 142.574 24.6594C142.459 25.1452 142.401 25.6657 142.401 26.2208C142.401 27.7476 142.413 29.1356 142.436 30.3847C142.459 31.6339 142.482 32.8136 142.505 33.924C142.551 35.0344 142.598 36.11 142.644 37.151C142.69 38.192 142.736 39.2561 142.783 40.3433C143.453 39.4411 144.078 38.4117 144.656 37.2551C145.235 36.0753 145.732 34.8724 146.148 33.6464C146.588 32.3972 146.923 31.1597 147.155 29.9336C147.409 28.7076 147.536 27.5741 147.536 26.5331ZM160.097 42.0435C159.935 42.3905 159.762 42.7491 159.577 43.1192C159.415 43.4893 159.207 43.8363 158.952 44.1602C157.68 45.9645 156.234 47.3872 154.615 48.4281C152.996 49.446 151.388 49.9549 149.792 49.9549C148.797 49.9549 147.849 49.7235 146.947 49.2609C146.044 48.8214 145.246 48.1043 144.552 47.1096C144.46 46.9939 144.413 46.8898 144.413 46.7973C144.413 46.5891 144.552 46.485 144.83 46.485C144.853 46.485 144.934 46.5081 145.073 46.5544C145.258 46.5544 145.466 46.6238 145.697 46.7626C145.952 46.8782 146.31 46.9361 146.773 46.9361C147.49 46.9361 148.161 46.8088 148.786 46.5544C149.41 46.2999 149.942 45.9761 150.382 45.5828C150.844 45.1664 151.203 44.7038 151.457 44.1949C151.712 43.6628 151.839 43.1192 151.839 42.564C151.839 41.87 151.654 41.2686 151.284 40.7597C150.937 40.2508 150.335 39.9963 149.48 39.9963C148.6 39.9963 147.791 40.3086 147.051 40.9332C146.31 41.5346 145.64 42.2749 145.038 43.1539C144.46 44.0098 143.962 44.9235 143.546 45.8951C143.13 46.8435 142.817 47.6763 142.609 48.3934C142.493 48.7867 142.389 49.0296 142.297 49.1221C142.204 49.2146 142.1 49.2609 141.985 49.2609C141.73 49.2609 141.614 49.018 141.638 48.5322C141.638 48.324 141.649 48.0696 141.672 47.7688C141.695 47.4681 141.719 47.1443 141.742 46.7973C141.742 46.4503 141.753 46.1033 141.776 45.7563C141.8 45.3862 141.811 45.0508 141.811 44.75C141.811 43.7091 141.788 42.5177 141.742 41.1761C141.695 39.8112 141.638 38.4117 141.568 36.9775C141.499 35.5201 141.441 34.0744 141.395 32.6401C141.348 31.2059 141.325 29.8874 141.325 28.6845C141.325 27.736 141.395 26.8223 141.533 25.9433C141.672 25.0411 141.892 24.2546 142.193 23.5837C142.493 22.8898 142.875 22.3461 143.338 21.9529C143.8 21.5365 144.344 21.3283 144.969 21.3283C145.616 21.3283 146.16 21.444 146.6 21.6753C147.062 21.8835 147.432 22.1958 147.71 22.6122C147.987 23.0054 148.184 23.4912 148.3 24.0695C148.439 24.6247 148.508 25.2377 148.508 25.9086C148.508 27.0652 148.346 28.3375 148.022 29.7254C147.698 31.0903 147.27 32.4666 146.738 33.8546C146.206 35.2426 145.593 36.5842 144.899 37.8797C144.228 39.152 143.534 40.2623 142.817 41.2108C142.864 41.9047 142.887 42.6218 142.887 43.3621C142.91 44.1023 142.945 44.8888 142.991 45.7216C143.569 44.4724 144.205 43.3968 144.899 42.4946C145.2 42.1014 145.535 41.7197 145.906 41.3496C146.299 40.9563 146.704 40.6093 147.12 40.3086C147.56 40.0079 148.022 39.765 148.508 39.5799C149.017 39.3948 149.549 39.3023 150.104 39.3023C150.983 39.3023 151.747 39.5221 152.394 39.9616C153.042 40.4011 153.366 41.1067 153.366 42.0782C153.366 43.0035 153.134 43.79 152.672 44.4377C152.232 45.0855 151.677 45.6291 151.006 46.0686C150.335 46.485 149.618 46.7973 148.855 47.0055C148.092 47.2137 147.398 47.3409 146.773 47.3872C146.727 47.3872 146.704 47.3987 146.704 47.4219C146.704 47.4681 146.738 47.5375 146.808 47.63C147.27 48.1621 147.791 48.5438 148.369 48.7751C148.947 49.0064 149.549 49.1221 150.174 49.1221C150.937 49.1221 151.712 48.9833 152.498 48.7057C153.285 48.405 154.037 48.0233 154.754 47.5606C155.471 47.0749 156.13 46.5312 156.732 45.9298C157.356 45.3052 157.865 44.6806 158.258 44.0561C158.49 43.7091 158.698 43.3505 158.883 42.9804C159.068 42.6103 159.253 42.2402 159.438 41.87L160.097 42.0435Z" fill="#1F1711" />
  <path d="M164.989 39.8922C164.989 39.2676 164.827 38.7587 164.503 38.3654C164.203 37.9491 163.705 37.7409 163.011 37.7409C162.641 37.7409 162.306 37.8565 162.005 38.0879C161.704 38.3192 161.45 38.6315 161.242 39.0247C161.033 39.3948 160.872 39.8344 160.756 40.3433C160.64 40.8522 160.582 41.3843 160.582 41.9394C160.582 42.8185 160.675 43.605 160.86 44.299C161.068 44.9698 161.357 45.5597 161.727 46.0686C162.213 45.6753 162.653 45.2243 163.046 44.7153C163.439 44.2064 163.775 43.6744 164.052 43.1192C164.353 42.564 164.584 42.0088 164.746 41.4536C164.908 40.8985 164.989 40.378 164.989 39.8922ZM173.768 42.0435C173.606 42.3905 173.432 42.7491 173.247 43.1192C173.086 43.4662 172.877 43.8132 172.623 44.1602C171.489 45.7794 170.194 47.0055 168.737 47.8382C167.302 48.6479 165.926 49.0527 164.607 49.0527C163.867 49.0527 163.173 48.9255 162.525 48.671C161.901 48.4166 161.357 48.0349 160.895 47.5259C160.432 47.017 160.062 46.3809 159.784 45.6175C159.507 44.8541 159.368 43.952 159.368 42.911C159.368 42.217 159.472 41.523 159.68 40.8291C159.888 40.1351 160.166 39.5105 160.513 38.9553C160.883 38.4001 161.299 37.9491 161.762 37.6021C162.248 37.2551 162.757 37.0816 163.289 37.0816C164.145 37.0816 164.769 37.336 165.163 37.845C165.556 38.3308 165.752 38.9553 165.752 39.7187C165.752 40.7597 165.429 41.8932 164.781 43.1192C164.156 44.3221 163.254 45.444 162.074 46.485C162.953 47.4797 164.087 47.977 165.475 47.977C166.516 47.977 167.603 47.6647 168.737 47.0402C169.87 46.3925 170.934 45.3978 171.929 44.0561C172.183 43.7322 172.392 43.3852 172.553 43.0151C172.739 42.6218 172.924 42.2402 173.109 41.87L173.768 42.0435Z" fill="#1F1711" />
</svg>