<svg width="10" height="10" viewBox="0 0 10 10" fill="none" xmlns="http://www.w3.org/2000/svg">
<path d="M2.20001 6.0338H2.50001C2.49998 5.97545 2.48294 5.91838 2.45097 5.86957C2.419 5.82076 2.37349 5.78233 2.32001 5.759L2.20001 6.0338ZM7.80001 6.0338L7.68001 5.759C7.62654 5.78233 7.58103 5.82076 7.54906 5.86957C7.51709 5.91838 7.50004 5.97545 7.50001 6.0338H7.80001ZM6.50001 3.0002C6.50001 3.07976 6.53162 3.15607 6.58788 3.21233C6.64414 3.26859 6.72045 3.3002 6.80001 3.3002C6.87958 3.3002 6.95588 3.26859 7.01214 3.21233C7.06841 3.15607 7.10001 3.07976 7.10001 3.0002H6.50001ZM2.90001 3.0002C2.90001 3.07976 2.93162 3.15607 2.98788 3.21233C3.04414 3.26859 3.12045 3.3002 3.20001 3.3002C3.27958 3.3002 3.35588 3.26859 3.41214 3.21233C3.46841 3.15607 3.50001 3.07976 3.50001 3.0002H2.90001ZM3.00001 1.9002C2.39001 1.9002 1.805 2.14252 1.37367 2.57385C0.942333 3.00518 0.700012 3.5902 0.700012 4.2002H1.30001C1.30001 3.74933 1.47912 3.31693 1.79793 2.99811C2.11674 2.6793 2.54914 2.5002 3.00001 2.5002V1.9002ZM7.00001 2.5002C7.45088 2.5002 7.88328 2.6793 8.20209 2.99811C8.52091 3.31693 8.70001 3.74933 8.70001 4.2002H9.30001C9.30001 3.5902 9.05769 3.00518 8.62636 2.57385C8.19502 2.14252 7.61001 1.9002 7.00001 1.9002V2.5002ZM6.20001 8.7002H3.80001V9.3002H6.20001V8.7002ZM3.80001 8.7002C3.41441 8.7002 3.15521 8.6994 2.96201 8.6734C2.77761 8.6486 2.69841 8.6058 2.64641 8.5534L2.22241 8.9782C2.40441 9.1602 2.63121 9.2342 2.88241 9.2682C3.12481 9.301 3.43121 9.3002 3.80001 9.3002V8.7002ZM1.90001 7.4002C1.90001 7.769 1.89921 8.0754 1.93201 8.3178C1.96561 8.569 2.04001 8.7958 2.22201 8.9778L2.64641 8.5538C2.59441 8.5018 2.55161 8.4226 2.52641 8.2378C2.50081 8.045 2.50001 7.7858 2.50001 7.4002H1.90001ZM7.50001 7.4002C7.50001 7.7858 7.49921 8.045 7.47321 8.2382C7.44841 8.4226 7.40561 8.5018 7.35321 8.5538L7.77801 8.9778C7.96001 8.7958 8.03401 8.569 8.06801 8.3178C8.10081 8.0754 8.10001 7.769 8.10001 7.4002H7.50001ZM6.20001 9.3002C6.56881 9.3002 6.87521 9.301 7.11761 9.2682C7.36881 9.2346 7.59601 9.1602 7.77801 8.9778L7.35361 8.5538C7.30161 8.6058 7.22241 8.6486 7.03761 8.6738C6.84481 8.6994 6.58561 8.7002 6.20001 8.7002V9.3002ZM3.00001 2.5002C3.08561 2.5002 3.16921 2.5066 3.25121 2.5186L3.33881 1.925C3.22664 1.90845 3.1134 1.90016 3.00001 1.9002V2.5002ZM5.00001 0.700195C4.56112 0.700196 4.13325 0.837654 3.77648 1.09327C3.41971 1.34888 3.15196 1.70982 3.01081 2.1254L3.57881 2.3182C3.67968 2.02132 3.87099 1.76349 4.12589 1.58091C4.38079 1.39832 4.68647 1.30016 5.00001 1.3002V0.700195ZM3.01081 2.1254C2.93722 2.34276 2.89979 2.57072 2.90001 2.8002H3.50001C3.50001 2.631 3.52801 2.469 3.57921 2.3182L3.01081 2.1254ZM7.00001 1.9002C6.88521 1.9002 6.77201 1.9086 6.66121 1.925L6.74921 2.5186C6.83225 2.50634 6.91607 2.50019 7.00001 2.5002V1.9002ZM5.00001 1.3002C5.31349 1.30024 5.61908 1.39845 5.8739 1.58102C6.12872 1.7636 6.31997 2.02138 6.42081 2.3182L6.98881 2.1254C6.84769 1.70988 6.58 1.349 6.22331 1.09339C5.86661 0.837776 5.43883 0.700279 5.00001 0.700195V1.3002ZM6.42081 2.3182C6.47201 2.469 6.50001 2.631 6.50001 2.8002H7.10001C7.10001 2.5646 7.06081 2.3378 6.98881 2.1254L6.42121 2.3182H6.42081ZM2.50001 7.4002V6.0338H1.90001V7.4002H2.50001ZM2.32001 5.759C2.01676 5.62659 1.75874 5.40859 1.57756 5.1317C1.39638 4.85482 1.29992 4.53109 1.30001 4.2002H0.700012C0.699982 4.64778 0.830526 5.08566 1.07565 5.46016C1.32077 5.83466 1.66981 6.12951 2.08001 6.3086L2.32001 5.759ZM7.50001 6.0338V7.4002H8.10001V6.0338H7.50001ZM8.70001 4.2002C8.7001 4.53109 8.60365 4.85482 8.42247 5.1317C8.24129 5.40859 7.98326 5.62659 7.68001 5.759L7.92001 6.3086C8.33021 6.12951 8.67926 5.83466 8.92438 5.46016C9.1695 5.08566 9.30004 4.64778 9.30001 4.2002H8.70001ZM6.50001 2.8002V3.0002H7.10001V2.8002H6.50001ZM2.90001 2.8002V3.0002H3.50001V2.8002H2.90001Z" fill="#312C27"/>
<path opacity="0.5" d="M5 4.19803L4.7924 4.41483C4.84825 4.46837 4.92263 4.49826 5 4.49826C5.07737 4.49826 5.15175 4.46837 5.2076 4.41483L5 4.19803ZM4.7944 5.42563C4.6276 5.30323 4.4432 5.14963 4.3036 4.98883C4.1564 4.81843 4.1 4.68603 4.1 4.60003H3.5C3.5 4.90803 3.6764 5.18043 3.85 5.38123C4.0312 5.59083 4.2556 5.77443 4.4396 5.90923L4.7944 5.42563ZM4.1 4.60003C4.1 4.36963 4.2052 4.26963 4.2968 4.23723C4.3968 4.20203 4.5824 4.21323 4.7928 4.41483L5.2076 3.98123C4.8776 3.66523 4.4632 3.54323 4.0984 3.67123C3.7248 3.80203 3.5 4.16123 3.5 4.60003H4.1ZM5.56 5.90963C5.744 5.77443 5.9688 5.59083 6.15 5.38123C6.3236 5.18043 6.5 4.90803 6.5 4.60003H5.9C5.9 4.68603 5.8436 4.81843 5.696 4.98883C5.5568 5.15003 5.3724 5.30323 5.2056 5.42563L5.5604 5.90963H5.56ZM6.5 4.60003C6.5 4.16123 6.2748 3.80203 5.9016 3.67123C5.5368 3.54323 5.1224 3.66563 4.7924 3.98123L5.2076 4.41483C5.4176 4.21323 5.6032 4.20203 5.7036 4.23723C5.7948 4.26923 5.9 4.36963 5.9 4.60003H6.5ZM4.44 5.90963C4.5872 6.01763 4.7528 6.15243 5 6.15243V5.55243C4.9904 5.55243 4.984 5.55243 4.9624 5.54083C4.90401 5.50604 4.84789 5.46756 4.7944 5.42563L4.4396 5.90963H4.44ZM5.2056 5.42563C5.15211 5.46756 5.09599 5.50604 5.0376 5.54083C5.016 5.55243 5.0096 5.55243 5 5.55243V6.15243C5.2472 6.15243 5.4128 6.01763 5.56 5.90963L5.2056 5.42563Z" fill="#312C27"/>
<path opacity="0.5" d="M2.20001 7.40039H7.80001" stroke="#312C27" stroke-width="1.5" stroke-linecap="round" stroke-linejoin="round"/>
</svg>
